<svg width="244" height="333" viewBox="0 0 244 333" fill="none" xmlns="http://www.w3.org/2000/svg">
<path d="M72.2245 96.5204C70.8935 100.491 69.5335 104.499 68.8701 108.646C68.5948 110.367 68.4447 112.13 68.3909 113.874C68.3873 113.99 68.4168 114.384 68.2311 114.431C68.0047 114.488 68.0547 112.456 68.0537 112.428C67.902 108.36 66.1988 104.746 65.0099 100.922C64.6425 99.7399 63.5461 97.3446 65.001 96.4305C65.8579 95.8922 66.6089 99.6613 66.6693 99.9336C67.4948 103.653 67.6481 107.453 67.7431 111.251C67.7542 111.694 67.752 113.024 67.752 112.58C67.752 110.89 67.5202 109.21 67.2195 107.55C66.5219 103.7 64.7058 99.618 65.0631 95.6401C65.0821 95.4289 65.7862 93.8535 65.8263 94.2389C66.1173 97.0374 65.8165 99.9974 65.8352 102.808C65.8472 104.623 66.4275 110.03 66.4741 108.215C66.548 105.334 66.267 102.484 66.1724 99.6102C66.132 98.3857 65.4365 92.9835 67.4325 92.4784" stroke="#B35D44" stroke-width="3" stroke-linecap="round"/>
<path d="M64.9514 87.8391C65.4395 88.9361 65.5273 90.0832 65.5885 91.2743C65.6253 91.9916 65.5911 92.6373 65.4771 93.339C65.1957 95.0703 65.5314 96.9213 65.6199 98.6538C65.6751 99.7347 65.6608 100.814 65.6742 101.895C65.685 102.774 65.7688 103.663 65.7113 104.541C65.6914 104.846 65.5687 105.059 65.4628 104.625C65.1878 103.498 65.1242 102.311 64.9114 101.17C64.6225 99.6197 64.278 98.0846 64.1115 96.514C63.985 95.3211 63.9598 94.1216 63.9744 92.9226C63.9821 92.2873 64.056 91.3042 64.4486 90.7539C64.7024 90.3981 64.8046 89.8986 64.8886 89.4642C64.9342 89.228 64.8941 87.1475 64.6429 87.1624C64.5025 87.1708 64.7559 90.0372 64.7343 90.3779C64.7051 90.8383 64.6057 91.2892 64.5943 91.7515C64.5792 92.3648 64.5914 92.9799 64.5914 93.5934C64.5914 96 64.4245 98.3818 64.5914 100.788C64.6519 101.659 64.6429 102.529 64.6429 103.402C64.6429 104.524 64.6776 105.653 64.62 106.774C64.5714 107.72 64.3994 108.643 64.2286 109.573C64.0981 110.283 63.8357 110.973 63.7801 111.695C63.7133 112.563 63.7614 113.402 63.7687 114.269C63.7775 115.32 63.7904 116.315 63.9629 117.357C64.0478 117.869 64.0772 118.361 64.0772 118.878C64.0772 119.858 64.1324 116.914 64.2829 115.946C64.617 113.798 65.2313 111.711 65.4542 109.544C65.8166 106.022 65.8266 102.474 66.237 98.9545C66.5462 96.3026 67.3339 93.7086 67.3683 91.0257C67.3752 90.4881 67.2738 89.7315 67.6197 89.2647C67.6635 89.2056 67.7142 89.1881 67.7511 89.2733C68.0393 89.9391 68.0503 90.8512 68.0939 91.5519C68.3011 94.8762 67.9063 98.1817 67.7425 101.496C67.6482 103.406 67.6279 105.338 67.7283 107.248C67.7433 107.534 67.763 107.82 67.7768 108.107C67.7886 108.35 67.7603 107.619 67.7511 107.375C67.6737 105.315 67.6337 103.256 67.4997 101.198C67.3697 99.2025 67.1772 97.1467 67.3569 95.1463C67.4203 94.4395 67.7316 93.5651 68.4596 93.2985C69.3936 92.9564 69.6888 94.1649 69.7966 94.8397C69.992 96.0633 70.0015 97.3319 70.008 98.5671C70.0184 100.537 69.9394 102.505 69.6538 104.454C69.5327 105.281 69.4398 106.16 69.2538 106.976C69.0248 107.98 69.8533 105.004 70.2251 104.044C71.0149 102.005 72.1174 100.132 73.2505 98.275C73.5346 97.8093 73.8197 97.3456 74.0819 96.8668C74.2555 96.5496 74.4076 96.2068 74.6361 95.9241C75.0035 95.4696 75.0605 96.856 75.0732 96.9304C75.6083 100.06 76.0766 103.213 76.3845 106.374C76.4837 107.393 76.6972 108.519 76.6216 109.552C76.6007 109.838 76.584 109.028 76.5844 109.017C76.6792 107.063 77.4857 104.644 76.1331 102.951C75.8081 102.544 75.4501 102.759 75.0989 103.02C73.8852 103.923 72.7446 104.934 71.5564 105.871C70.8698 106.413 70.1728 106.973 69.6623 107.696C69.5076 107.915 69.111 108.363 69.111 108.653C69.111 108.941 69.6064 108.331 69.7566 108.086C70.5828 106.739 71.1746 105.266 72.0421 103.94C73.1411 102.259 74.4922 100.824 76.0531 99.5791C76.1036 99.5389 77.5663 98.3162 77.5158 98.2837C77.4025 98.2107 77.2878 98.4304 77.1901 98.5237C76.7256 98.9673 76.3849 99.5259 76.0502 100.071C75.2148 101.431 74.4092 102.794 73.3905 104.026C72.6465 104.926 71.8641 105.884 70.9965 106.667C70.7951 106.848 70.579 107.018 70.3451 107.155C70.154 107.267 70.0613 107.289 70.2023 107.057C71.3732 105.131 72.707 103.198 74.1847 101.499C74.564 101.063 75.0015 100.605 75.2703 100.085C75.5471 99.5503 74.6662 100.22 74.6018 100.279C73.4743 101.308 72.7571 102.635 72.1849 104.038C71.7399 105.129 71.194 106.191 70.7965 107.3C70.7383 107.462 70.3499 108.448 70.7365 108.485C71.4416 108.553 72.2338 107.885 72.802 107.566C73.9786 106.905 75.1352 106.571 76.4816 106.534C77.108 106.516 77.7349 106.528 78.3614 106.525C78.9311 106.522 79.5794 106.574 80.1326 106.398C80.5606 106.261 80.5326 105.874 80.5326 105.498C80.5326 105.02 80.4541 105.801 80.424 105.9C79.7623 108.092 77.4768 109.303 75.3617 109.625C74.93 109.69 74.2156 109.837 73.8019 109.616C73.7101 109.567 73.5102 109.323 73.4762 109.486C73.3371 110.151 72.9543 110.807 72.6649 111.418C72.5579 111.643 72.4726 111.883 72.3849 112.117C72.339 112.24 72.2535 112.619 72.2535 112.487C72.2535 112.031 72.4371 111.557 72.5392 111.12C72.8176 109.928 72.965 108.785 73.7105 107.774C74.4469 106.776 75.3841 105.873 76.3445 105.099C76.9951 104.575 77.6616 103.995 78.39 103.581C78.6738 103.42 78.7196 103.454 78.7299 103.789C78.7541 104.573 78.4761 105.301 78.1214 105.987C77.2622 107.649 75.7977 108.816 74.7446 110.33C74.5775 110.571 74.8221 109.916 74.8332 109.888C75.1432 109.114 75.3553 108.292 75.7731 107.566C76.4329 106.42 77.7017 105.47 78.9842 105.154C79.5214 105.022 79.2538 105.837 79.2013 106.129C79.0044 107.221 78.6963 108.447 78.0757 109.382C77.7544 109.866 77.2676 110.195 76.733 110.394C76.4143 110.512 76.0537 110.541 75.7503 110.7C75.3643 110.903 75.2889 111.477 74.9275 111.73C74.6062 111.955 74.1748 111.999 73.8362 112.221C72.3682 113.185 70.7906 113.972 69.191 114.685C68.8422 114.841 68.4558 115.031 68.0796 115.104C67.8905 115.141 67.9395 115.029 67.9968 114.893C68.3829 113.981 69.1647 113.232 69.888 112.586C70.3682 112.157 70.9227 111.893 71.4736 111.577C71.9108 111.326 72.1911 111.015 72.5106 110.625C73.309 109.65 74.176 108.889 75.3389 108.399" stroke="#B35D44" stroke-width="3" stroke-linecap="round"/>
<path d="M75.4932 109.908C75.3709 109.578 73.4032 110.67 73.242 110.75C72.1637 111.282 71.0193 111.704 69.9624 112.274C69.4997 112.523 68.8551 112.89 68.6396 113.41C68.5437 113.641 68.6901 113.585 68.8311 113.471C69.6047 112.844 70.1444 111.808 70.4309 110.868C70.9871 109.044 70.709 107.073 71.2536 105.247C71.2589 105.229 71.2745 105.087 71.2479 105.218C71.1968 105.469 71.1827 105.733 71.1508 105.987C70.9739 107.394 70.8933 108.79 70.8651 110.209C70.8481 111.068 70.819 111.923 70.608 112.759C70.5191 113.112 70.4667 113.568 70.1966 113.832C70.0712 113.955 69.9656 114.02 69.7909 114.02C69.5627 114.02 69.7028 113.311 69.7167 113.199C69.826 112.317 70.0408 111.351 70.4509 110.559C70.5544 110.359 70.7442 110.171 70.8137 109.96" stroke="#B35D44" stroke-width="3" stroke-linecap="round"/>
<path d="M67.5226 111.209C67.5226 112.8 67.4176 114.329 66.9969 115.871C66.8113 116.551 66.5682 117.214 66.4256 117.906C66.3244 118.398 66.2952 118.901 66.237 119.399C66.1867 119.829 66.1339 121.021 65.5428 121.154C64.8716 121.305 65.0871 122.282 64.6829 122.701C64.6095 122.777 64.0642 123.156 64.163 122.84C64.4142 122.034 64.9204 121.38 65.4685 120.76C67.2704 118.724 69.1998 116.818 71.1022 114.876C72.5186 113.43 73.8542 112.062 75.7731 111.322C76.4585 111.058 77.1779 110.887 77.8586 110.614C77.9878 110.562 78.3449 110.451 78.37 110.273C78.4333 109.824 77.3397 110.015 77.1273 110.059C75.7442 110.341 74.7613 111.622 74.1162 112.8C73.6431 113.664 73.3506 114.573 72.5621 115.211C72.1359 115.556 71.6938 115.876 71.2765 116.232C70.7407 116.69 70.367 117.323 69.8652 117.82C69.2504 118.428 68.4191 118.553 67.6769 118.924C67.1396 119.193 66.6869 119.679 66.2885 120.121C65.9693 120.476 65.5717 120.801 65.3228 121.214C65.1682 121.472 64.9945 121.822 64.7458 122.004C64.4881 122.192 64.4509 122.29 64.3344 122.585C64.2644 122.762 64.1287 123.087 64.1287 123.285C64.1287 123.377 64.3181 123.76 64.4372 123.69C64.5943 123.598 64.7338 123.269 64.8486 123.129C65.179 122.725 65.5516 122.438 65.9771 122.143C66.7104 121.634 67.5137 121.277 68.0397 120.52C68.577 119.748 69.1618 119.166 69.9166 118.612C71.052 117.779 72.0539 116.729 72.9306 115.631C73.3907 115.054 73.9969 114.624 74.4847 114.075C74.757 113.769 74.958 113.391 75.2761 113.135C75.4475 112.997 75.6863 112.929 75.8417 112.782C76.0587 112.579 76.1511 112.321 76.2931 112.062C76.4221 111.827 76.6341 111.59 76.6731 111.313C76.6908 111.188 76.666 111.263 76.6131 111.322C76.4023 111.559 76.1455 111.759 75.8903 111.944C74.8652 112.685 73.6851 113.164 72.6621 113.919C71.444 114.818 70.2608 115.745 69.0882 116.704C68.4258 117.245 67.7466 117.842 67.2026 118.508C66.6877 119.139 66.2545 119.832 65.7228 120.445C65.3456 120.881 64.913 121.289 64.5943 121.773C64.4532 121.987 64.3093 122.217 64.1287 122.4C63.9108 122.621 63.6807 122.847 63.6259 123.169C63.5724 123.484 63.6145 123.839 63.6145 124.158C63.6145 124.341 63.5856 124.724 63.4345 124.846C63.2632 124.985 63.1247 125.226 62.9574 125.378C62.7758 125.544 62.6982 125.73 62.5574 125.913C62.4724 126.024 62.3468 126.1 62.2775 126.223C62.1617 126.428 62.1159 126.068 62.1003 125.983C62.0163 125.521 62.052 124.978 62.0746 124.508C62.0869 124.253 62.1303 123.996 62.1746 123.745C62.265 123.232 62.226 122.698 62.226 122.18C62.226 121.717 62.1992 121.244 62.2889 120.787C62.3537 120.456 62.4409 120.135 62.4717 119.798C62.536 119.095 62.5346 118.397 62.5346 117.692C62.5346 116.935 62.5346 116.177 62.5346 115.42C62.5346 114.354 62.6419 113.292 62.6374 112.227C62.632 110.95 62.529 109.677 62.546 108.399C62.5564 107.614 62.6098 106.83 62.5746 106.045C62.5316 105.089 62.5546 104.151 62.5831 103.197C62.6085 102.351 62.6476 101.509 62.6888 100.664C62.7954 98.4794 62.7983 96.3174 62.6374 94.1314C62.5835 93.3986 62.5588 92.6516 62.4717 91.9221C62.413 91.4302 62.1746 91.0026 62.1746 90.4908C62.1746 89.7966 62.0903 89.1507 62.226 88.4637" stroke="#B35D44" stroke-width="3" stroke-linecap="round"/>
<path d="M109.638 39.6413C109.971 39.6413 110.281 39.8046 110.598 39.89C111.486 40.1289 112.368 40.3106 113.289 40.3179C115.684 40.3369 118.072 40.2209 120.465 40.2138C122.688 40.2073 124.902 39.9652 127.122 39.89C128.679 39.8372 130.244 39.703 131.801 39.6933C133.988 39.6798 136.16 39.381 138.344 39.381C140.268 39.381 142.23 39.3447 144.143 39.1092C145.35 38.9606 146.583 38.821 147.794 38.7565C147.862 38.7528 147.995 38.6532 148 38.768C148.006 38.9293 147.916 39.0515 147.834 39.1844C147.483 39.7549 146.828 40.2399 146.343 40.6823C145.913 41.074 145.397 41.2892 144.937 41.6307C144.547 41.9209 144.185 42.2567 143.8 42.5561C142.915 43.2449 141.985 43.8641 141.106 44.5629C140.363 45.154 139.834 45.8309 139.306 46.6188C138.53 47.7767 137.663 48.9724 136.664 49.9413C135.552 51.0191 134.131 51.6044 133.164 52.8387C132.648 53.4968 132.386 54.3671 131.984 55.0971C131.628 55.7432 131.218 56.3449 130.567 56.7107C130.136 56.9531 129.65 57.1618 129.182 57.315C129.093 57.3442 128.338 57.6504 128.702 57.6504C129.75 57.6504 130.652 56.4271 131.276 55.7362C132.973 53.8549 134.839 52.3042 136.927 50.8956C137.239 50.6846 137.578 50.4946 137.872 50.2565C138.074 50.0932 138.265 49.9259 138.438 49.7302C138.748 49.3798 138.891 48.9204 139.161 48.5389C139.739 47.719 140.526 46.998 141.266 46.3268C141.595 46.0284 141.89 45.6843 142.269 45.4477C142.633 45.2201 143.006 45.0094 143.343 44.7393C144.075 44.1534 144.488 43.3962 144.709 42.504" stroke="#B35D44" stroke-width="3" stroke-linecap="round"/>
<path d="M144.143 39.6411C143.406 40.3874 142.529 40.9881 141.755 41.6942C140.424 42.9075 139.201 44.1913 138.112 45.6326C136.915 47.2173 135.878 48.9539 134.475 50.3691C133.528 51.3251 132.379 52.1564 131.07 52.5031C130.845 52.5626 129.75 52.8525 129.55 52.5494C129.447 52.3935 129.968 51.8655 130.042 51.786C130.623 51.1588 131.233 50.5589 131.83 49.9469C132.614 49.1431 133.356 48.282 134.027 47.3791C134.394 46.8849 134.71 46.2835 135.172 45.8697C135.186 45.8579 135.342 45.7004 135.327 45.8292C135.279 46.2367 135.013 46.6793 134.841 47.0379C134.026 48.7395 133.216 50.4522 132.327 52.1157C131.572 53.5295 130.703 54.8335 129.519 55.9153C128.703 56.66 127.789 57.2904 126.899 57.9394C126.496 58.2333 126.115 58.5461 125.725 58.8532C125.642 58.9183 125.841 58.6763 125.902 58.59C126.141 58.2528 126.36 57.9018 126.593 57.5606C128.609 54.6131 130.388 51.4709 132.873 48.8828C135.458 46.1901 138.546 44.0747 141.552 41.9053C141.587 41.8799 142.447 41.2914 142.36 41.1737C142.227 40.9934 141.286 41.7207 141.212 41.7751C140.105 42.5838 139.171 43.5806 138.235 44.58C137.172 45.7152 136.146 46.8894 135.127 48.0645C133.755 49.6458 132.355 51.3688 130.581 52.5089C130.473 52.5789 129.892 53.0178 129.984 52.6419C130.266 51.4999 130.739 50.3721 131.161 49.279C131.732 47.8013 132.429 46.4395 133.247 45.089C133.878 44.0475 134.507 43.0164 135.39 42.1684C135.861 41.7156 136.37 41.3228 136.938 41.006C137.072 40.9311 137.088 40.9133 136.989 41.0638C136.711 41.4891 136.465 41.9319 136.218 42.3766C134.324 45.785 132.552 49.4786 129.63 52.1214C127.68 53.8855 125.393 55.1486 123.351 56.7828C123.173 56.9251 122.983 57.0623 122.822 57.2252C122.812 57.2353 122.65 57.4768 122.634 57.4768C122.541 57.4768 122.748 57.3287 122.808 57.257C123.149 56.8492 123.507 56.4537 123.831 56.0309C125.014 54.4848 125.901 52.7296 127.165 51.2424C128.717 49.4151 130.7 47.9547 132.578 46.4943C133.995 45.3934 135.379 44.2842 136.529 42.8913C136.961 42.369 137.379 41.8287 137.641 41.1968C137.831 40.7364 137.345 41.8269 137.324 41.8648C136.325 43.6135 135.052 45.2319 133.704 46.7141C131.857 48.7448 129.733 50.9547 127.116 51.9422C126.989 51.9901 127.09 51.769 127.096 51.7513C127.294 51.2101 127.626 50.7078 127.95 50.239C129.126 48.5416 130.73 47.164 132.378 45.9536C135.032 44.0053 137.974 42.4729 140.546 40.4103C140.586 40.3783 141.188 39.7975 140.932 40.0922C140.323 40.793 139.665 41.4582 138.975 42.0759C137.541 43.3595 136.027 44.5851 134.43 45.6557C132.475 46.9659 130.347 47.9574 128.213 48.9233C125.834 50.0005 123.45 51.0665 121.065 52.133C119.992 52.6132 118.729 53.036 117.777 53.7523C117.513 53.9508 118.476 53.7451 118.523 53.7292C119.994 53.2306 121.291 52.0615 122.457 51.0689C124.902 48.9853 127.156 46.6081 129.882 44.8837C130.018 44.7972 130.165 44.6841 130.316 44.6205C130.446 44.5655 130.344 44.9115 130.304 45.0485C129.687 47.1985 128.598 49.2437 127.585 51.2192C126.211 53.8969 124.554 56.9298 121.465 57.7948C121.191 57.8716 120.694 58.0534 120.765 57.5837C120.823 57.2072 120.972 56.8293 121.088 56.4705C121.394 55.5264 121.717 54.5889 122.094 53.6714C122.661 52.2925 123.384 51.0332 124.288 49.8544C124.783 49.2091 125.305 48.508 126.008 48.0789C127.549 47.1381 126.513 50.5532 126.299 50.9937C125.74 52.1444 124.793 53.3 123.625 53.8535C122.633 54.324 121.462 54.0792 120.563 53.5036C120.023 53.1588 119.028 52.4232 119.097 51.6588C119.142 51.1602 120.076 51.0244 120.431 50.9474C123.31 50.3231 125.771 48.6961 128.019 46.8182C129.132 45.8878 130.189 44.9744 131.45 44.2504C132.227 43.8041 133.072 43.4642 133.83 42.9839C133.897 42.9409 134.143 42.8158 133.998 42.7352C133.609 42.5187 133.118 42.4055 132.678 42.4055C131.554 42.4055 130.431 42.6611 129.322 42.8161C127.64 43.0512 125.956 43.2609 124.276 43.513C123.495 43.6303 122.708 43.753 121.917 43.753C121.885 43.753 121.698 43.7759 121.814 43.7097C122.147 43.5186 122.522 43.3873 122.891 43.2904C124.498 42.8679 126.227 42.8545 127.876 42.8277C129.981 42.7935 132.088 42.8595 134.193 42.8046C134.936 42.7851 135.677 42.7385 136.412 42.6195C136.736 42.5671 137.169 42.5169 137.452 42.3188C137.672 42.1649 136.926 42.0698 136.901 42.0672C135.95 41.9676 134.971 42.0602 134.024 42.1511C132.052 42.3403 130.101 42.4195 128.119 42.3911C124.769 42.3431 121.449 42.0051 118.117 41.6826C115.645 41.4433 113.163 41.1165 110.678 41.0551C110.193 41.0432 109.706 41.0417 109.221 41.0465C109.127 41.0474 108.737 41.0036 108.672 41.139C108.628 41.2316 110.006 41.4753 110.072 41.486C111.603 41.7311 113.165 41.7887 114.706 41.9313C116.931 42.1371 119.144 42.3878 121.38 42.4402C122.222 42.46 123.179 42.3544 124.011 42.5299C124.352 42.6018 123.32 42.6195 122.974 42.66C119.249 43.096 115.434 42.7641 111.741 43.4812C111.447 43.5383 111.157 43.612 110.869 43.6952C110.766 43.7252 110.458 43.7827 110.564 43.8022C110.695 43.8263 110.87 43.8045 110.998 43.8051C111.745 43.8086 112.491 43.8303 113.238 43.8687C115.229 43.9713 117.221 44.1062 119.211 44.2244C120.924 44.3261 122.661 44.4726 124.328 44.9097C124.464 44.9453 125.612 45.1577 125.182 45.4793C124.44 46.0346 123.266 46.0556 122.391 46.0953C120.529 46.1796 118.664 46.155 116.806 46.0201C116.085 45.9677 115.356 45.9098 114.632 45.9391C113.974 45.9657 115.948 45.9912 116.606 45.9912C118.729 45.9912 120.851 46.0484 122.974 46.0837C124.688 46.1122 126.396 46.1588 128.096 46.4047C128.338 46.4397 128.689 46.4541 128.919 46.5637C129.041 46.6221 128.698 46.7306 128.57 46.7748C127.267 47.2244 125.742 47.1501 124.391 47.1131C122.196 47.0531 120.023 46.6918 117.831 46.6302C117.308 46.6155 116.436 46.506 116.037 46.9685C115.841 47.1964 115.828 47.511 116.063 47.7117C116.731 48.2829 117.916 48.2181 118.723 48.183C120.461 48.1075 122.215 47.7403 123.894 47.2895C124.801 47.0458 126.014 46.8324 126.693 46.1068C126.968 45.8131 127.115 45.3325 126.888 44.9704C126.342 44.0999 124.891 43.789 123.962 43.7241C123.189 43.6701 122.455 43.8329 121.871 44.3661C121.804 44.4273 121.447 44.6628 121.665 44.7015C122.326 44.8188 122.913 45.0395 123.537 45.2943C124.614 45.7345 125.68 46.2671 126.802 46.5811C127.393 46.7464 128.002 46.8144 128.61 46.8731C129.297 46.9393 127.241 46.7024 126.556 46.6158" stroke="#B35D44" stroke-width="3" stroke-linecap="round"/>
<path d="M132.375 56.2457C132.391 56.1696 132.497 56.0738 132.542 56.0086C132.688 55.7992 132.861 55.6135 133.009 55.406C133.301 54.9938 133.427 54.5295 133.669 54.0983C133.882 53.7203 134.106 53.3358 134.413 53.0246C134.708 52.7257 134.961 52.3885 135.239 52.0732C135.657 51.598 136.086 51.132 136.505 50.6569C137.315 49.7391 138.096 48.7662 138.995 47.9344C139.563 47.4093 140.182 46.9389 140.74 46.4034C140.958 46.1943 141.146 45.9561 141.363 45.7457C141.572 45.5431 141.803 45.3678 142.024 45.1782C142.402 44.8526 142.75 44.4924 143.146 44.1871C143.481 43.9287 143.835 43.698 144.153 43.4162C144.378 43.2161 144.586 42.9976 144.853 42.8503C145.104 42.7123 145.348 42.5817 145.584 42.419C145.79 42.2778 146.036 42.2102 146.25 42.081C146.472 41.9463 146.685 41.8066 146.912 41.6803C147.22 41.5091 147.446 41.2348 147.655 40.966C147.933 40.6084 148.232 40.294 148.558 39.981C148.639 39.9032 148.742 39.8381 148.827 39.7684C148.97 39.6516 149.12 39.5258 149.238 39.3814C149.277 39.3334 149.33 39.2599 149.356 39.204C149.381 39.1509 149.219 39.276 149.203 39.2866C148.999 39.425 148.834 39.6747 148.619 39.7822" stroke="#B35D44" stroke-width="3" stroke-linecap="round"/>
<path d="M134.991 53.8779C135.194 53.6952 135.329 53.4695 135.52 53.2784C135.616 53.1829 135.725 53.0014 135.844 52.9419" stroke="#B35D44" stroke-width="3" stroke-linecap="round"/>
<rect x="61.8253" y="87.8757" width="68.6268" height="27.8036" transform="rotate(-45.4139 61.8253 87.8757)" fill="#B35D44"/>
<line x1="61.6433" y1="87.6496" x2="116.643" y2="31.6496" stroke="#B35D44"/>
<line x1="78.6433" y1="111.65" x2="133.643" y2="55.6496" stroke="#B35D44"/>
<line x1="78.6433" y1="110.65" x2="133.643" y2="54.6496" stroke="#B35D44"/>
<line x1="55.5" y1="94" x2="55.5" y2="134" stroke="#93483C"/>
<line x1="61.5" y1="87" x2="61.5" y2="128" stroke="#93483C"/>
<line x1="54.6464" y1="134.646" x2="61.6464" y2="127.646" stroke="#93483C"/>
<line x1="54.6464" y1="94.6464" x2="61.6464" y2="87.6464" stroke="#93483C"/>
<rect x="56" y="94" width="5" height="34" fill="#93483C"/>
<path d="M58.5 91L61.5311 94H55.4689L58.5 91Z" fill="#93483C"/>
<path d="M58.5 91L61.5311 94H55.4689L58.5 91Z" fill="#93483C"/>
<path d="M58.5706 129.999L55.1427 133.463L55.1427 126.536L58.5706 129.999Z" fill="#93483C"/>
<path d="M58.5706 129.999L55.1427 133.463L55.1427 126.536L58.5706 129.999Z" fill="#93483C"/>
<path d="M58.5 131L55.4689 127.25L61.5311 127.25L58.5 131Z" fill="#93483C"/>
<path d="M58.5 131L55.4689 127.25L61.5311 127.25L58.5 131Z" fill="#93483C"/>
<path d="M58 91.5L61 88.4689L61 94.5311L58 91.5Z" fill="#93483C"/>
<path d="M58 91.5L61 88.4689L61 94.5311L58 91.5Z" fill="#93483C"/>
<line y1="-0.5" x2="40.8333" y2="-0.5" transform="matrix(1 4.28193e-08 4.4622e-08 -1 116.146 32)" stroke="#93483C"/>
<line y1="-0.5" x2="41.8542" y2="-0.5" transform="matrix(1 4.28193e-08 4.4622e-08 -1 109 38)" stroke="#93483C"/>
<line y1="-0.5" x2="10.0031" y2="-0.5" transform="matrix(-0.714359 0.69978 0.714359 0.69978 158 32)" stroke="#93483C"/>
<line y1="-0.5" x2="10.0031" y2="-0.5" transform="matrix(-0.714359 0.69978 0.714359 0.69978 117.167 32)" stroke="#93483C"/>
<rect width="5" height="34.7083" transform="matrix(-4.4622e-08 1 1 4.28193e-08 116.146 33)" fill="#93483C"/>
<path d="M113.083 35.5L116.146 38.5311L116.146 32.4689L113.083 35.5Z" fill="#93483C"/>
<path d="M113.083 35.5L116.146 38.5311L116.146 32.4689L113.083 35.5Z" fill="#93483C"/>
<path d="M152.895 35.5706L156.43 32.1427H149.359L152.895 35.5706Z" fill="#93483C"/>
<path d="M152.895 35.5706L156.43 32.1427H149.359L152.895 35.5706Z" fill="#93483C"/>
<path d="M153.917 35.5L150.089 32.4689L150.089 38.5311L153.917 35.5Z" fill="#93483C"/>
<path d="M153.917 35.5L150.089 32.4689L150.089 38.5311L153.917 35.5Z" fill="#93483C"/>
<path d="M113.594 35L110.499 38L116.688 38L113.594 35Z" fill="#93483C"/>
<path d="M113.594 35L110.499 38L116.688 38L113.594 35Z" fill="#93483C"/>
<line x1="116" y1="31.5" x2="159" y2="31.5" stroke="#AF6348"/>
<line x1="54.5" y1="30" x2="54.5" y2="94" stroke="#CB7448"/>
<line x1="25" y1="332.5" x2="55" y2="332.5" stroke="#CB7448"/>
<line x1="24.5" y1="333" x2="24.5" y2="30" stroke="#CB7448"/>
<line x1="54.5" y1="332" x2="54.5" y2="135" stroke="#CB7448"/>
<line x1="53.6437" y1="94.6492" x2="116.644" y2="30.6492" stroke="#B0563B"/>
<line x1="53.6464" y1="136.646" x2="159.646" y2="30.6464" stroke="#B0563B"/>
<line x1="54.5" y1="94" x2="54.5" y2="136" stroke="#B0563B"/>
<line x1="25" y1="30.5" x2="1" y2="30.5" stroke="#CB6D41"/>
<line x1="0.5" y1="31" x2="0.499999" y2="1" stroke="#CB6D41"/>
<line y1="1.5" x2="228" y2="1.5" stroke="#CB6D41"/>
<line x1="228.5" y1="1" x2="228.5" y2="31" stroke="#CB6D41"/>
<line x1="117" y1="30.5" x2="54" y2="30.5" stroke="#CB6D41"/>
<line x1="116" y1="30.5" x2="229" y2="30.5" stroke="#CB6D41"/>
<rect x="1" y="2" width="227" height="28" fill="#CD7A50"/>
<line x1="25" y1="30.5" x2="54" y2="30.5" stroke="#D07D53"/>
<line x1="116" y1="30.5" x2="160" y2="30.5" stroke="#D07D53"/>
<line x1="25" y1="31.5" x2="54" y2="31.5" stroke="#BE6B47"/>
<line x1="25.5" y1="31" x2="25.5" y2="39" stroke="#BE6B47"/>
<line x1="26" y1="38.5" x2="54" y2="38.5" stroke="#BE6B47"/>
<line x1="53.5" y1="39" x2="53.5" y2="31" stroke="#BE6B47"/>
<rect x="26" y="32" width="27" height="6" fill="#AB5942"/>
<rect x="25" y="39" width="29" height="293" fill="#CD7A50"/>
<rect x="197" y="30" width="8" height="50" rx="2" fill="#EBA75C"/>
<rect x="196" y="29" width="10" height="6" rx="2" fill="#CB774E"/>
<rect x="197" y="74" width="8" height="6" rx="1" fill="#CB774E"/>
<rect x="199" width="7" height="32" rx="2" fill="#EBA75C"/>
<rect x="188" y="1.81177" width="7" height="32" rx="2" transform="rotate(-15 188 1.81177)" fill="#EBA75C"/>
<rect x="193" y="81" width="16" height="7" rx="2" fill="#C8744C"/>
<rect x="191" y="76" width="20" height="7" rx="2" fill="#EBA95C"/>
<rect x="192" y="90" width="18" height="5" rx="2" fill="#C8744C"/>
<rect x="191" y="85" width="20" height="7" rx="2" fill="#EBA95C"/>
<rect x="199" y="126" width="10" height="12" fill="#FFDFC4"/>
<rect x="191.54" y="221" width="8" height="85" rx="4" transform="rotate(10.534 191.54 221)" fill="#FFDFC4"/>
<rect x="209" y="222.136" width="8" height="85" rx="4" transform="rotate(-8.16116 209 222.136)" fill="#FFDFC4"/>
<rect x="187.118" y="138" width="35" height="90" rx="10" fill="#D9D9D9"/>
<path d="M187.118 148C187.118 142.477 191.595 138 197.118 138H212.118C217.641 138 222.118 142.477 222.118 148V183H187.118V148Z" fill="#D21B1B"/>
<path d="M222.118 218C222.118 223.523 217.641 228 212.118 228L197.118 228C191.595 228 187.118 223.523 187.118 218L187.118 183L222.118 183L222.118 218Z" fill="#001356"/>
<rect x="209" y="222.136" width="8" height="36.9927" transform="rotate(-8.16116 209 222.136)" fill="#001356"/>
<path d="M239.352 134.268C239.96 136.203 238.909 138.083 236.922 138.615L236.108 138.834C233.755 139.464 231.1 137.962 230.49 135.654L223.748 110.153C223.649 109.78 223.492 109.416 223.281 109.073L209.884 87.2434C208.576 85.1116 209.529 82.6187 211.896 81.9846L212.696 81.7703C214.672 81.2407 216.936 82.2167 217.943 84.0325L230.739 107.116C230.873 107.358 230.981 107.609 231.062 107.865L239.352 134.268Z" fill="#FFDFC4"/>
<rect width="8" height="23.6813" transform="matrix(-0.655362 -0.755315 0.655362 -0.755315 221.243 157.142)" fill="#D21B1B"/>
<rect width="8" height="54.4137" rx="4" transform="matrix(0.655362 -0.755315 -0.655362 -0.755315 189.661 157.142)" fill="#FFDFC4"/>
<rect width="8" height="23.6813" transform="matrix(0.655362 -0.755315 -0.655362 -0.755315 189.661 157.142)" fill="#D21B1B"/>
<rect x="191.311" y="222.021" width="8" height="36.9927" transform="rotate(10.534 191.311 222.021)" fill="#001356"/>
<path d="M220.5 125.763C220.5 136.072 212.032 144.5 201.5 144.5C190.968 144.5 182.5 136.072 182.5 125.763C182.5 120.366 184.785 112.268 188.632 105.507C190.538 102.158 192.724 99.3237 195.015 97.3659C197.309 95.4066 199.492 94.5 201.5 94.5C203.509 94.5 205.691 95.4066 207.985 97.3659C210.277 99.3237 212.463 102.158 214.368 105.507C218.215 112.268 220.5 120.366 220.5 125.763Z" stroke="#EBA85E" stroke-width="7"/>
<circle cx="204" cy="118" r="17" fill="#FFDFC4"/>
<circle cx="211" cy="116" r="2" fill="#1E1E1E"/>
<circle cx="197" cy="116" r="2" fill="#1E1E1E"/>
<ellipse cx="204" cy="129" rx="3" ry="2" fill="#E1958B"/>
<rect x="183" y="305.192" width="6.86792" height="27.0137" rx="2" fill="#93483C"/>
<rect x="228.132" y="305.986" width="6.86792" height="27.0137" rx="2" fill="#93483C"/>
<rect x="235" y="305.192" width="5.56165" height="52" rx="2" transform="rotate(90 235 305.192)" fill="#93483C"/>
<rect x="235" y="309.959" width="6.86793" height="34.9589" rx="2" transform="rotate(-180 235 309.959)" fill="#93483C"/>
</svg>
