<svg width="232" height="333" viewBox="0 0 232 333" fill="none" xmlns="http://www.w3.org/2000/svg">
<path d="M72.2245 96.5205C70.8935 100.491 69.5336 104.499 68.8701 108.646C68.5948 110.368 68.4448 112.13 68.3909 113.874C68.3873 113.991 68.4168 114.384 68.2312 114.431C68.0048 114.488 68.0548 112.456 68.0537 112.428C67.9021 108.36 66.1988 104.746 65.0099 100.922C64.6425 99.74 63.5462 97.3447 65.0011 96.4307C65.8579 95.8923 66.6089 99.6614 66.6694 99.9337C67.4949 103.653 67.6481 107.453 67.7431 111.251C67.7542 111.694 67.752 113.024 67.752 112.581C67.752 110.891 67.5203 109.21 67.2196 107.551C66.5219 103.7 64.7059 99.6181 65.0632 95.6402C65.0821 95.429 65.7863 93.8536 65.8263 94.239C66.1174 97.0375 65.8165 99.9975 65.8352 102.808C65.8473 104.623 66.4276 110.03 66.4741 108.215C66.5481 105.334 66.2671 102.484 66.1724 99.6103C66.1321 98.3858 65.4365 92.9836 67.4325 92.4785" stroke="#B35D44" stroke-width="3" stroke-linecap="round"/>
<path d="M64.9515 87.8392C65.4396 88.9362 65.5273 90.0834 65.5886 91.2745C65.6254 91.9917 65.5912 92.6374 65.4771 93.3391C65.1958 95.0705 65.5314 96.9215 65.62 98.6539C65.6752 99.7349 65.6609 100.814 65.6743 101.895C65.6851 102.774 65.7688 103.663 65.7114 104.541C65.6915 104.846 65.5687 105.059 65.4629 104.625C65.1879 103.498 65.1243 102.311 64.9115 101.17C64.6226 99.6199 64.2781 98.0847 64.1116 96.5141C63.9851 95.3212 63.9599 94.1217 63.9744 92.9227C63.9822 92.2874 64.056 91.3043 64.4487 90.754C64.7025 90.3983 64.8046 89.8988 64.8886 89.4643C64.9343 89.2281 64.8941 87.1476 64.6429 87.1626C64.5026 87.1709 64.756 90.0374 64.7344 90.3781C64.7051 90.8385 64.6058 91.2894 64.5944 91.7516C64.5792 92.365 64.5915 92.98 64.5915 93.5936C64.5915 96.0001 64.4245 98.3819 64.5915 100.788C64.652 101.659 64.6429 102.529 64.6429 103.402C64.6429 104.524 64.6777 105.653 64.6201 106.774C64.5715 107.72 64.3995 108.644 64.2287 109.573C64.0982 110.283 63.8358 110.973 63.7802 111.695C63.7133 112.564 63.7615 113.402 63.7687 114.269C63.7776 115.32 63.7905 116.316 63.963 117.357C64.0479 117.869 64.0773 118.361 64.0773 118.878C64.0773 119.858 64.1325 116.914 64.283 115.946C64.617 113.798 65.2313 111.711 65.4543 109.544C65.8166 106.022 65.8267 102.474 66.2371 98.9547C66.5463 96.3027 67.3339 93.7088 67.3684 91.0258C67.3753 90.4882 67.2738 89.7316 67.6198 89.2648C67.6635 89.2057 67.7143 89.1882 67.7512 89.2735C68.0394 89.9392 68.0503 90.8513 68.094 91.5521C68.3012 94.8764 67.9063 98.1818 67.7426 101.496C67.6483 103.406 67.628 105.338 67.7283 107.248C67.7434 107.534 67.7631 107.82 67.7769 108.107C67.7886 108.35 67.7603 107.619 67.7512 107.375C67.6738 105.315 67.6338 103.256 67.4998 101.199C67.3697 99.2026 67.1773 97.1468 67.3569 95.1464C67.4204 94.4397 67.7317 93.5652 68.4597 93.2986C69.3937 92.9565 69.6889 94.165 69.7967 94.8399C69.9921 96.0634 70.0016 97.332 70.0081 98.5672C70.0184 100.537 69.9394 102.505 69.6538 104.455C69.5328 105.281 69.4399 106.16 69.2539 106.976C69.0249 107.981 69.8533 105.004 70.2252 104.044C71.015 102.006 72.1174 100.133 73.2506 98.2751C73.5347 97.8094 73.8198 97.3457 74.0819 96.8669C74.2556 96.5497 74.4076 96.2069 74.6362 95.9242C75.0035 95.4697 75.0605 96.8561 75.0732 96.9305C75.6084 100.06 76.0767 103.213 76.3845 106.375C76.4837 107.393 76.6973 108.519 76.6217 109.553C76.6007 109.839 76.584 109.028 76.5845 109.018C76.6793 107.064 77.4858 104.644 76.1331 102.951C75.8082 102.544 75.4502 102.759 75.099 103.02C73.8853 103.923 72.7447 104.934 71.5565 105.871C70.8699 106.413 70.1728 106.973 69.6624 107.696C69.5077 107.915 69.111 108.363 69.111 108.653C69.111 108.942 69.6064 108.331 69.7567 108.086C70.5829 106.739 71.1747 105.266 72.0421 103.94C73.1412 102.259 74.4923 100.824 76.0531 99.5793C76.1036 99.539 77.5664 98.3164 77.5158 98.2838C77.4026 98.2108 77.2878 98.4305 77.1902 98.5238C76.7257 98.9675 76.385 99.526 76.0503 100.071C75.2149 101.431 74.4093 102.794 73.3906 104.027C72.6466 104.927 71.8641 105.884 70.9965 106.667C70.7951 106.848 70.5791 107.018 70.3452 107.155C70.1541 107.268 70.0614 107.289 70.2023 107.057C71.3733 105.131 72.7071 103.198 74.1848 101.499C74.5641 101.063 75.0016 100.605 75.2704 100.085C75.5472 99.5504 74.6663 100.22 74.6019 100.279C73.4743 101.308 72.7572 102.636 72.185 104.038C71.7399 105.129 71.194 106.191 70.7966 107.3C70.7384 107.462 70.35 108.448 70.7366 108.486C71.4416 108.553 72.2339 107.885 72.8021 107.566C73.9787 106.906 75.1353 106.571 76.4817 106.534C77.1081 106.516 77.7349 106.528 78.3615 106.525C78.9312 106.522 79.5795 106.574 80.1327 106.398C80.5607 106.261 80.5327 105.874 80.5327 105.498C80.5327 105.02 80.4542 105.801 80.4241 105.9C79.7624 108.092 77.4769 109.303 75.3618 109.625C74.9301 109.69 74.2157 109.837 73.802 109.616C73.7102 109.567 73.5103 109.323 73.4763 109.486C73.3372 110.151 72.9544 110.807 72.6649 111.418C72.558 111.643 72.4726 111.883 72.385 112.117C72.339 112.24 72.2536 112.619 72.2536 112.488C72.2536 112.031 72.4372 111.557 72.5392 111.12C72.8177 109.928 72.9651 108.785 73.7105 107.774C74.4469 106.776 75.3842 105.873 76.3445 105.099C76.9952 104.575 77.6617 103.995 78.39 103.581C78.6739 103.42 78.7197 103.455 78.73 103.789C78.7542 104.573 78.4762 105.301 78.1215 105.987C77.2623 107.649 75.7978 108.816 74.7447 110.33C74.5776 110.571 74.8221 109.916 74.8333 109.888C75.1433 109.114 75.3554 108.292 75.7732 107.566C76.433 106.42 77.7018 105.47 78.9843 105.154C79.5214 105.022 79.2539 105.837 79.2014 106.129C79.0045 107.221 78.6964 108.448 78.0758 109.382C77.7545 109.866 77.2676 110.195 76.7331 110.394C76.4144 110.513 76.0538 110.541 75.7503 110.701C75.3644 110.903 75.289 111.477 74.9276 111.73C74.6063 111.955 74.1749 111.999 73.8362 112.222C72.3682 113.185 70.7906 113.972 69.191 114.685C68.8422 114.841 68.4559 115.031 68.0797 115.104C67.8906 115.142 67.9396 115.029 67.9969 114.893C68.3829 113.982 69.1647 113.232 69.8881 112.586C70.3683 112.157 70.9228 111.893 71.4736 111.577C71.9109 111.326 72.1912 111.015 72.5107 110.625C73.3091 109.65 74.1761 108.889 75.3389 108.399" stroke="#B35D44" stroke-width="3" stroke-linecap="round"/>
<path d="M75.4932 109.908C75.3709 109.578 73.4032 110.67 73.242 110.75C72.1638 111.282 71.0193 111.704 69.9624 112.274C69.4997 112.523 68.8551 112.89 68.6397 113.41C68.5438 113.642 68.6902 113.585 68.8311 113.471C69.6047 112.844 70.1444 111.808 70.4309 110.868C70.9871 109.044 70.709 107.073 71.2537 105.247C71.2589 105.229 71.2745 105.087 71.2479 105.218C71.1968 105.469 71.1828 105.733 71.1508 105.987C70.9739 107.394 70.8933 108.791 70.8651 110.209C70.8481 111.068 70.819 111.923 70.608 112.759C70.5191 113.112 70.4668 113.569 70.1966 113.832C70.0712 113.955 69.9656 114.02 69.791 114.02C69.5627 114.02 69.7028 113.311 69.7167 113.199C69.8261 112.317 70.0408 111.351 70.4509 110.559C70.5544 110.359 70.7442 110.171 70.8137 109.96" stroke="#B35D44" stroke-width="3" stroke-linecap="round"/>
<path d="M67.5226 111.21C67.5226 112.8 67.4177 114.329 66.997 115.871C66.8113 116.551 66.5683 117.214 66.4256 117.907C66.3244 118.398 66.2953 118.901 66.2371 119.399C66.1867 119.829 66.1339 121.021 65.5428 121.154C64.8716 121.305 65.0871 122.283 64.6829 122.701C64.6095 122.777 64.0642 123.156 64.163 122.84C64.4143 122.034 64.9205 121.38 65.4686 120.761C67.2704 118.724 69.1998 116.818 71.1023 114.876C72.5187 113.43 73.8543 112.062 75.7732 111.322C76.4585 111.058 77.1779 110.888 77.8587 110.614C77.9878 110.562 78.3449 110.451 78.37 110.273C78.4333 109.825 77.3398 110.015 77.1273 110.059C75.7442 110.342 74.7613 111.622 74.1162 112.8C73.6431 113.664 73.3506 114.573 72.5621 115.212C72.136 115.557 71.6939 115.876 71.2765 116.232C70.7407 116.69 70.3671 117.323 69.8652 117.82C69.2504 118.428 68.4192 118.553 67.6769 118.924C67.1397 119.193 66.6869 119.679 66.2885 120.122C65.9693 120.476 65.5717 120.801 65.3229 121.215C65.1682 121.472 64.9945 121.822 64.7458 122.004C64.4881 122.192 64.4509 122.29 64.3344 122.585C64.2644 122.762 64.1287 123.088 64.1287 123.285C64.1287 123.377 64.3181 123.76 64.4373 123.69C64.5943 123.598 64.7338 123.269 64.8486 123.129C65.179 122.725 65.5516 122.438 65.9771 122.143C66.7104 121.634 67.5137 121.277 68.0397 120.521C68.5771 119.748 69.1619 119.166 69.9167 118.612C71.052 117.779 72.054 116.729 72.9306 115.631C73.3907 115.054 73.9969 114.624 74.4847 114.075C74.757 113.769 74.958 113.391 75.2761 113.135C75.4475 112.997 75.6863 112.929 75.8417 112.783C76.0587 112.579 76.1511 112.321 76.2931 112.063C76.4222 111.827 76.6341 111.59 76.6731 111.314C76.6908 111.188 76.666 111.263 76.6131 111.322C76.4023 111.559 76.1455 111.759 75.8903 111.944C74.8652 112.685 73.6851 113.164 72.6621 113.919C71.444 114.818 70.2608 115.745 69.0882 116.704C68.4258 117.245 67.7467 117.842 67.2027 118.508C66.6877 119.139 66.2546 119.832 65.7228 120.445C65.3456 120.881 64.913 121.289 64.5944 121.773C64.4532 121.987 64.3093 122.217 64.1287 122.4C63.9108 122.621 63.6807 122.847 63.6259 123.169C63.5724 123.484 63.6145 123.839 63.6145 124.158C63.6145 124.341 63.5856 124.724 63.4345 124.847C63.2632 124.985 63.1248 125.226 62.9574 125.379C62.7758 125.544 62.6982 125.73 62.5575 125.914C62.4725 126.024 62.3468 126.1 62.2775 126.223C62.1617 126.428 62.116 126.069 62.1004 125.983C62.0163 125.521 62.052 124.978 62.0747 124.508C62.087 124.253 62.1303 123.996 62.1746 123.745C62.265 123.233 62.2261 122.698 62.2261 122.18C62.2261 121.717 62.1993 121.244 62.2889 120.787C62.3537 120.456 62.4409 120.135 62.4718 119.798C62.536 119.095 62.5346 118.398 62.5346 117.693C62.5346 116.935 62.5346 116.177 62.5346 115.42C62.5346 114.354 62.6419 113.292 62.6374 112.227C62.6321 110.95 62.5291 109.677 62.546 108.399C62.5564 107.614 62.6098 106.83 62.5746 106.045C62.5317 105.089 62.5546 104.151 62.5832 103.197C62.6085 102.351 62.6476 101.509 62.6889 100.664C62.7954 98.4795 62.7984 96.3175 62.6374 94.1315C62.5835 93.3987 62.5589 92.6517 62.4718 91.9223C62.413 91.4304 62.1746 91.0027 62.1746 90.4909C62.1746 89.7967 62.0903 89.1508 62.2261 88.4639" stroke="#B35D44" stroke-width="3" stroke-linecap="round"/>
<path d="M109.638 39.6414C109.971 39.6414 110.281 39.8047 110.598 39.8901C111.486 40.1291 112.368 40.3107 113.289 40.3181C115.684 40.3371 118.072 40.221 120.465 40.214C122.688 40.2074 124.902 39.9653 127.122 39.8901C128.679 39.8374 130.244 39.7031 131.801 39.6935C133.988 39.6799 136.16 39.3812 138.344 39.3812C140.268 39.3812 142.23 39.3448 144.143 39.1094C145.35 38.9607 146.583 38.8211 147.794 38.7566C147.862 38.7529 147.995 38.6533 148 38.7681C148.006 38.9294 147.916 39.0516 147.834 39.1845C147.483 39.755 146.828 40.2401 146.343 40.6824C145.913 41.0741 145.397 41.2894 144.937 41.6309C144.547 41.921 144.185 42.2568 143.8 42.5562C142.915 43.245 141.985 43.8643 141.106 44.563C140.363 45.1541 139.835 45.8311 139.306 46.6189C138.53 47.7768 137.663 48.9725 136.664 49.9414C135.552 51.0192 134.131 51.6045 133.164 52.8389C132.649 53.4969 132.386 54.3673 131.984 55.0972C131.628 55.7433 131.218 56.345 130.567 56.7108C130.136 56.9532 129.65 57.1619 129.182 57.3151C129.093 57.3443 128.338 57.6506 128.702 57.6506C129.75 57.6506 130.652 56.4273 131.276 55.7363C132.973 53.855 134.839 52.3044 136.927 50.8957C137.239 50.6847 137.578 50.4948 137.872 50.2566C138.074 50.0933 138.265 49.926 138.438 49.7304C138.748 49.3799 138.891 48.9205 139.161 48.539C139.739 47.7191 140.526 46.9981 141.266 46.3269C141.595 46.0285 141.89 45.6844 142.269 45.4478C142.633 45.2202 143.006 45.0095 143.343 44.7394C144.075 44.1535 144.488 43.3963 144.709 42.5041" stroke="#B35D44" stroke-width="3" stroke-linecap="round"/>
<path d="M144.143 39.6414C143.406 40.3877 142.529 40.9883 141.755 41.6944C140.424 42.9078 139.201 44.1915 138.112 45.6328C136.915 47.2176 135.878 48.9542 134.475 50.3693C133.528 51.3254 132.379 52.1567 131.07 52.5034C130.846 52.5629 129.75 52.8528 129.55 52.5496C129.448 52.3937 129.968 51.8657 130.042 51.7863C130.623 51.159 131.233 50.5592 131.83 49.9472C132.614 49.1433 133.356 48.2823 134.027 47.3794C134.394 46.8852 134.71 46.2838 135.173 45.87C135.186 45.8581 135.342 45.7007 135.327 45.8295C135.279 46.237 135.013 46.6795 134.841 47.0382C134.026 48.7397 133.216 50.4525 132.327 52.1159C131.572 53.5298 130.703 54.8337 129.519 55.9155C128.703 56.6602 127.789 57.2907 126.899 57.9397C126.496 58.2336 126.115 58.5463 125.725 58.8534C125.642 58.9186 125.841 58.6765 125.902 58.5903C126.141 58.2531 126.36 57.902 126.593 57.5609C128.609 54.6134 130.388 51.4711 132.873 48.883C135.458 46.1903 138.546 44.075 141.552 41.9055C141.587 41.8801 142.448 41.2916 142.36 41.1739C142.227 40.9937 141.286 41.721 141.212 41.7754C140.105 42.584 139.171 43.5809 138.235 44.5803C137.172 45.7155 136.146 46.8897 135.127 48.0647C133.755 49.646 132.355 51.3691 130.582 52.5092C130.473 52.5792 129.892 53.0181 129.984 52.6422C130.267 51.5001 130.739 50.3724 131.162 49.2792C131.732 47.8016 132.429 46.4398 133.247 45.0892C133.878 44.0477 134.507 43.0166 135.39 42.1687C135.861 41.7158 136.37 41.3231 136.938 41.0062C137.072 40.9313 137.088 40.9135 136.989 41.064C136.711 41.4894 136.465 41.9321 136.218 42.3769C134.324 45.7853 132.552 49.4789 129.63 52.1217C127.68 53.8857 125.393 55.1489 123.351 56.783C123.173 56.9254 122.983 57.0625 122.822 57.2254C122.812 57.2356 122.65 57.477 122.634 57.477C122.541 57.477 122.748 57.3289 122.808 57.2572C123.15 56.8495 123.507 56.4539 123.831 56.0312C125.014 54.485 125.901 52.7298 127.165 51.2426C128.718 49.4153 130.7 47.9549 132.579 46.4945C133.995 45.3937 135.379 44.2845 136.53 42.8916C136.961 42.3692 137.38 41.8289 137.641 41.1971C137.831 40.7367 137.345 41.8272 137.324 41.865C136.325 43.6137 135.052 45.2322 133.704 46.7143C131.857 48.745 129.733 50.9549 127.116 51.9424C126.989 51.9904 127.09 51.7692 127.096 51.7516C127.294 51.2103 127.626 50.708 127.95 50.2392C129.126 48.5418 130.73 47.1642 132.379 45.9538C135.032 44.0055 137.974 42.4732 140.546 40.4105C140.586 40.3785 141.188 39.7977 140.932 40.0925C140.323 40.7933 139.665 41.4585 138.975 42.0761C137.541 43.3597 136.027 44.5853 134.43 45.656C132.476 46.9661 130.347 47.9576 128.213 48.9235C125.834 50.0007 123.45 51.0667 121.065 52.1332C119.992 52.6134 118.729 53.0363 117.777 53.7526C117.514 53.951 118.476 53.7453 118.523 53.7294C119.995 53.2308 121.292 52.0618 122.457 51.0691C124.902 48.9856 127.156 46.6084 129.882 44.8839C130.018 44.7975 130.166 44.6844 130.316 44.6208C130.446 44.5657 130.344 44.9117 130.304 45.0487C129.687 47.1988 128.598 49.2439 127.585 51.2195C126.211 53.8972 124.554 56.93 121.465 57.7951C121.191 57.8719 120.694 58.0537 120.765 57.584C120.823 57.2074 120.972 56.8295 121.088 56.4707C121.394 55.5267 121.717 54.5892 122.094 53.6716C122.661 52.2928 123.384 51.0335 124.288 49.8546C124.783 49.2094 125.305 48.5082 126.008 48.0792C127.549 47.1384 126.513 50.5535 126.299 50.9939C125.74 52.1446 124.793 53.3002 123.625 53.8538C122.633 54.3242 121.462 54.0794 120.563 53.5039C120.024 53.159 119.028 52.4234 119.097 51.659C119.142 51.1605 120.076 51.0247 120.431 50.9477C123.31 50.3233 125.771 48.6964 128.019 46.8184C129.133 45.8881 130.189 44.9747 131.45 44.2506C132.228 43.8044 133.072 43.4644 133.83 42.9841C133.898 42.9412 134.143 42.8161 133.998 42.7354C133.609 42.5189 133.118 42.4058 132.678 42.4058C131.554 42.4058 130.431 42.6613 129.322 42.8164C127.64 43.0515 125.956 43.2611 124.277 43.5133C123.496 43.6305 122.708 43.7533 121.917 43.7533C121.885 43.7533 121.698 43.7762 121.814 43.7099C122.147 43.5188 122.522 43.3876 122.891 43.2906C124.498 42.8681 126.227 42.8547 127.876 42.8279C129.981 42.7937 132.088 42.8598 134.193 42.8048C134.936 42.7854 135.677 42.7387 136.412 42.6197C136.736 42.5673 137.17 42.5171 137.452 42.319C137.672 42.1651 136.926 42.07 136.901 42.0674C135.95 41.9678 134.971 42.0604 134.024 42.1513C132.052 42.3406 130.101 42.4197 128.119 42.3913C124.769 42.3433 121.449 42.0053 118.117 41.6829C115.645 41.4436 113.163 41.1167 110.678 41.0554C110.193 41.0434 109.706 41.0419 109.221 41.0467C109.127 41.0476 108.737 41.0039 108.672 41.1392C108.629 41.2318 110.006 41.4755 110.072 41.4862C111.603 41.7313 113.165 41.789 114.706 41.9315C116.931 42.1373 119.144 42.3881 121.38 42.4405C122.222 42.4602 123.179 42.3546 124.011 42.5301C124.352 42.602 123.32 42.6197 122.974 42.6602C119.249 43.0963 115.434 42.7644 111.741 43.4815C111.447 43.5385 111.157 43.6123 110.869 43.6954C110.766 43.7254 110.458 43.7829 110.564 43.8024C110.695 43.8266 110.87 43.8047 110.998 43.8053C111.745 43.8089 112.492 43.8305 113.238 43.8689C115.229 43.9715 117.221 44.1064 119.211 44.2246C120.924 44.3263 122.661 44.4728 124.328 44.9099C124.464 44.9455 125.612 45.1579 125.182 45.4796C124.44 46.0348 123.266 46.0559 122.391 46.0955C120.529 46.1798 118.664 46.1553 116.806 46.0203C116.085 45.968 115.356 45.91 114.632 45.9394C113.974 45.966 115.948 45.9914 116.606 45.9914C118.729 45.9914 120.851 46.0486 122.974 46.0839C124.688 46.1125 126.396 46.1591 128.096 46.4049C128.339 46.44 128.689 46.4543 128.919 46.5639C129.041 46.6223 128.699 46.7308 128.57 46.775C127.267 47.2247 125.742 47.1503 124.391 47.1134C122.196 47.0533 120.023 46.6921 117.832 46.6305C117.308 46.6157 116.436 46.5062 116.037 46.9688C115.841 47.1967 115.828 47.5113 116.063 47.7119C116.731 48.2831 117.916 48.2183 118.723 48.1833C120.461 48.1078 122.216 47.7406 123.894 47.2897C124.801 47.046 126.014 46.8327 126.693 46.1071C126.969 45.8134 127.115 45.3328 126.888 44.9707C126.342 44.1001 124.891 43.7893 123.962 43.7244C123.19 43.6703 122.455 43.8331 121.871 44.3663C121.804 44.4275 121.447 44.663 121.665 44.7017C122.326 44.8191 122.913 45.0397 123.537 45.2945C124.614 45.7348 125.68 46.2673 126.802 46.5813C127.393 46.7467 128.002 46.8147 128.61 46.8734C129.297 46.9396 127.241 46.7026 126.556 46.616" stroke="#B35D44" stroke-width="3" stroke-linecap="round"/>
<path d="M132.376 56.2458C132.391 56.1697 132.497 56.0739 132.542 56.0088C132.688 55.7993 132.862 55.6136 133.009 55.4061C133.301 54.9939 133.427 54.5296 133.67 54.0984C133.882 53.7204 134.106 53.3359 134.413 53.0247C134.708 52.7258 134.961 52.3886 135.239 52.0733C135.657 51.5981 136.086 51.1321 136.505 50.657C137.315 49.7392 138.096 48.7663 138.995 47.9345C139.563 47.4094 140.182 46.939 140.74 46.4035C140.958 46.1944 141.146 45.9563 141.363 45.7458C141.572 45.5433 141.803 45.368 142.024 45.1784C142.402 44.8527 142.75 44.4925 143.146 44.1872C143.481 43.9288 143.835 43.6981 144.153 43.4164C144.378 43.2162 144.586 42.9978 144.853 42.8505C145.104 42.7124 145.348 42.5818 145.584 42.4191C145.79 42.2779 146.036 42.2103 146.25 42.0811C146.472 41.9465 146.685 41.8067 146.912 41.6804C147.22 41.5092 147.446 41.2349 147.655 40.9661C147.933 40.6086 148.232 40.2941 148.558 39.9811C148.639 39.9033 148.742 39.8382 148.827 39.7685C148.97 39.6517 149.12 39.5259 149.238 39.3815C149.278 39.3336 149.33 39.26 149.356 39.2041C149.381 39.151 149.219 39.2761 149.203 39.2867C148.999 39.4251 148.834 39.6748 148.619 39.7823" stroke="#B35D44" stroke-width="3" stroke-linecap="round"/>
<path d="M134.991 53.8782C135.194 53.6954 135.329 53.4697 135.52 53.2786C135.616 53.1832 135.726 53.0016 135.844 52.9421" stroke="#B35D44" stroke-width="3" stroke-linecap="round"/>
<rect x="61.8253" y="87.8757" width="68.6268" height="27.8036" transform="rotate(-45.4139 61.8253 87.8757)" fill="#B35D44"/>
<line x1="61.6433" y1="87.6496" x2="116.643" y2="31.6496" stroke="#B35D44"/>
<line x1="78.6433" y1="111.65" x2="133.643" y2="55.6496" stroke="#B35D44"/>
<line x1="78.6433" y1="110.65" x2="133.643" y2="54.6496" stroke="#B35D44"/>
<line x1="55.5" y1="94" x2="55.5" y2="134" stroke="#93483C"/>
<line x1="61.5" y1="87" x2="61.5" y2="128" stroke="#93483C"/>
<line x1="54.6464" y1="134.646" x2="61.6464" y2="127.646" stroke="#93483C"/>
<line x1="54.6464" y1="94.6464" x2="61.6464" y2="87.6464" stroke="#93483C"/>
<rect x="56" y="94" width="5" height="34" fill="#93483C"/>
<path d="M58.5 91L61.5311 94H55.4689L58.5 91Z" fill="#93483C"/>
<path d="M58.5 91L61.5311 94H55.4689L58.5 91Z" fill="#93483C"/>
<path d="M58.5705 129.999L55.1426 133.463L55.1426 126.536L58.5705 129.999Z" fill="#93483C"/>
<path d="M58.5705 129.999L55.1426 133.463L55.1426 126.536L58.5705 129.999Z" fill="#93483C"/>
<path d="M58.5 131L55.4689 127.25L61.5311 127.25L58.5 131Z" fill="#93483C"/>
<path d="M58.5 131L55.4689 127.25L61.5311 127.25L58.5 131Z" fill="#93483C"/>
<path d="M58 91.5L61 88.4689L61 94.5311L58 91.5Z" fill="#93483C"/>
<path d="M58 91.5L61 88.4689L61 94.5311L58 91.5Z" fill="#93483C"/>
<line y1="-0.5" x2="40.8333" y2="-0.5" transform="matrix(1 4.28193e-08 4.4622e-08 -1 116.146 32)" stroke="#93483C"/>
<line y1="-0.5" x2="41.8542" y2="-0.5" transform="matrix(1 4.28193e-08 4.4622e-08 -1 109 38)" stroke="#93483C"/>
<line y1="-0.5" x2="10.0031" y2="-0.5" transform="matrix(-0.714359 0.69978 0.714359 0.69978 158 32)" stroke="#93483C"/>
<line y1="-0.5" x2="10.0031" y2="-0.5" transform="matrix(-0.714359 0.69978 0.714359 0.69978 117.167 32)" stroke="#93483C"/>
<rect width="5" height="34.7083" transform="matrix(-4.4622e-08 1 1 4.28193e-08 116.146 32.9999)" fill="#93483C"/>
<path d="M113.083 35.4999L116.146 38.531L116.146 32.4689L113.083 35.4999Z" fill="#93483C"/>
<path d="M113.083 35.4999L116.146 38.531L116.146 32.4689L113.083 35.4999Z" fill="#93483C"/>
<path d="M152.895 35.5705L156.431 32.1426H149.359L152.895 35.5705Z" fill="#93483C"/>
<path d="M152.895 35.5705L156.431 32.1426H149.359L152.895 35.5705Z" fill="#93483C"/>
<path d="M153.917 35.4999L150.089 32.4688L150.089 38.531L153.917 35.4999Z" fill="#93483C"/>
<path d="M153.917 35.4999L150.089 32.4688L150.089 38.531L153.917 35.4999Z" fill="#93483C"/>
<path d="M113.594 34.9999L110.499 37.9999L116.688 37.9999L113.594 34.9999Z" fill="#93483C"/>
<path d="M113.594 34.9999L110.499 37.9999L116.688 37.9999L113.594 34.9999Z" fill="#93483C"/>
<line x1="116" y1="31.5" x2="159" y2="31.5" stroke="#AF6348"/>
<line x1="54.5" y1="30" x2="54.5" y2="94" stroke="#CB7448"/>
<line x1="25" y1="332.5" x2="55" y2="332.5" stroke="#CB7448"/>
<line x1="24.5" y1="333" x2="24.5" y2="30" stroke="#CB7448"/>
<line x1="54.5" y1="332" x2="54.5" y2="135" stroke="#CB7448"/>
<line x1="53.6437" y1="94.6492" x2="116.644" y2="30.6492" stroke="#B0563B"/>
<line x1="53.6464" y1="136.646" x2="159.646" y2="30.6464" stroke="#B0563B"/>
<line x1="54.5" y1="94" x2="54.5" y2="136" stroke="#B0563B"/>
<line x1="25" y1="30.5" x2="1" y2="30.5" stroke="#CB6D41"/>
<line x1="0.5" y1="31" x2="0.499999" y2="1" stroke="#CB6D41"/>
<line y1="1.5" x2="228" y2="1.5" stroke="#CB6D41"/>
<line x1="228.5" y1="1" x2="228.5" y2="31" stroke="#CB6D41"/>
<line x1="117" y1="30.5" x2="54" y2="30.5" stroke="#CB6D41"/>
<line x1="116" y1="30.5" x2="229" y2="30.5" stroke="#CB6D41"/>
<rect x="1" y="2" width="227" height="28" fill="#CD7A50"/>
<line x1="25" y1="30.5" x2="54" y2="30.5" stroke="#D07D53"/>
<line x1="116" y1="30.5" x2="160" y2="30.5" stroke="#D07D53"/>
<line x1="25" y1="31.5" x2="54" y2="31.5" stroke="#BE6B47"/>
<line x1="25.5" y1="31" x2="25.5" y2="39" stroke="#BE6B47"/>
<line x1="26" y1="38.5" x2="54" y2="38.5" stroke="#BE6B47"/>
<line x1="53.5" y1="39" x2="53.5" y2="31" stroke="#BE6B47"/>
<rect x="26" y="32" width="27" height="6" fill="#AB5942"/>
<rect x="25" y="39" width="29" height="293" fill="#CD7A50"/>
<rect x="197" y="30" width="8" height="50" rx="2" fill="#EBA75C"/>
<rect x="196" y="29" width="10" height="6" rx="2" fill="#CB774E"/>
<rect x="197" y="74" width="8" height="6" rx="1" fill="#CB774E"/>
<rect x="199" width="7" height="32" rx="2" fill="#EBA75C"/>
<rect x="188" y="1.81177" width="7" height="32" rx="2" transform="rotate(-15 188 1.81177)" fill="#EBA75C"/>
<rect x="193" y="81" width="16" height="7" rx="2" fill="#C8744C"/>
<rect x="191" y="76" width="20" height="7" rx="2" fill="#EBA95C"/>
<path d="M228.5 138.79C228.5 154.116 216.166 166.5 201 166.5C185.834 166.5 173.5 154.116 173.5 138.79C173.5 130.901 176.745 119.288 182.135 109.638C184.813 104.844 187.919 100.722 191.231 97.8398C194.546 94.9549 197.839 93.5 201 93.5C204.161 93.5 207.454 94.9549 210.769 97.8398C214.081 100.722 217.187 104.844 219.865 109.638C225.255 119.288 228.5 130.901 228.5 138.79Z" stroke="#EBA85E" stroke-width="7"/>
<rect x="192" y="90" width="18" height="5" rx="2" fill="#C8744C"/>
<rect x="191" y="85" width="20" height="7" rx="2" fill="#EBA95C"/>
</svg>
